<?xml version="1.0" encoding="utf-8"?>
<!-- Generator: Adobe Illustrator 27.8.0, SVG Export Plug-In . SVG Version: 6.00 Build 0)  -->
<svg version="1.1" id="Layer_1" xmlns="http://www.w3.org/2000/svg" xmlns:xlink="http://www.w3.org/1999/xlink" x="0px" y="0px"
	 viewBox="0 0 355.63 500" style="enable-background:new 0 0 355.63 500;" xml:space="preserve">
<style type="text/css">
	.st0{fill:#FFFFFF;}
	.st1{fill:#010101;}
	.st2{fill:#CCCCCC;}
	.st3{fill:#8F93A7;}
	.st4{fill:#231F20;}
	.st5{fill:#686F87;}
	.st6{fill:none;stroke:#231F20;stroke-width:4;stroke-miterlimit:10;}
	.st7{fill:#BEC1CC;}
	.st8{fill:#7B8090;}
	.st9{fill:none;stroke:#010101;stroke-width:4;stroke-miterlimit:10;}
	.st10{fill:#CACAD2;}
	.st11{fill:#9F9F9F;}
</style>
<g>
	<path class="st0" d="M280.99,109.47c0,0-11.33-15.44-14.24-23.87c-5.11,5.18-9.13,7.55-13.34,15.01L280.99,109.47z"/>
	<path class="st1" d="M283.42,111.22l-31.37-10.07l0.56-0.99c3.15-5.59,6.15-8.34,9.61-11.52c1.24-1.14,2.52-2.31,3.88-3.69
		l1.05-1.06l0.48,1.41c2.83,8.2,14,23.47,14.11,23.62L283.42,111.22z M254.78,100.09l23.83,7.65c-3.05-4.33-9.53-13.85-12.22-20.48
		c-1.01,0.99-1.98,1.87-2.92,2.74C260.32,92.89,257.58,95.4,254.78,100.09z"/>
</g>
<g>
	<path class="st2" d="M183.28,111.64c0.99-6.54,2.97-17.23,1.98-22.38s17.57-14.1,21.73-13.31c4.16,0.79,23.44,10.93,32.15,21.03
		C247.85,107.08,183.28,111.64,183.28,111.64z"/>
	<path class="st1" d="M182.19,112.64l0.17-1.14c0.14-0.9,0.29-1.87,0.45-2.89c1-6.28,2.36-14.89,1.53-19.18
		c-0.27-1.42,0.48-3.03,2.23-4.79c4.66-4.67,16.78-10.32,20.58-9.6c4.13,0.79,23.55,10.76,32.68,21.34c1.29,1.49,1.14,2.8,0.79,3.64
		c-0.58,1.39-2.34,5.63-30.25,9.63c-13.57,1.95-26.9,2.9-27.03,2.91L182.19,112.64z M206.34,76.82c-3.39,0-13.9,4.57-18.45,9.13
		c-1.26,1.26-1.87,2.37-1.72,3.14c0.89,4.61-0.45,13.04-1.52,19.81c-0.09,0.6-0.19,1.18-0.27,1.74c3.52-0.28,14.55-1.2,25.75-2.81
		c23.37-3.35,28.08-6.77,28.8-8.51c0.14-0.34,0.24-0.89-0.48-1.73c-8.71-10.1-27.77-20-31.63-20.73
		C206.67,76.83,206.52,76.82,206.34,76.82z"/>
</g>
<g>
	<path class="st0" d="M188.82,96.08c-1.77-0.85-3.49-1.93-5.14-3.22c-21.32-16.54-32.6-66.5-28.72-88.92
		c7.43,22.3,44.59,66.89,52.03,72C211.63,88.02,188.82,96.08,188.82,96.08z"/>
	<path class="st1" d="M188.77,97.08l-0.35-0.17c-1.79-0.86-3.58-1.98-5.31-3.32c-5.69-4.41-16.38-15.83-24.13-42.73
		c-4.96-17.23-6.9-35.71-4.93-47.07l0.63-3.61l1.16,3.48c7.27,21.8,44.44,66.56,51.67,71.53l0.24,0.16l0.1,0.27
		c1,2.6,0.91,5.22-0.28,7.79c-3.83,8.31-17.84,13.34-18.44,13.55L188.77,97.08z M155.4,7.71c-2.23,23.76,9.05,69.06,28.85,84.43
		c1.51,1.17,3.07,2.16,4.62,2.94c2.2-0.84,13.84-5.54,17.02-12.45c0.94-2.04,1.05-4.04,0.32-6.1C198.56,70.9,165.1,30.91,155.4,7.71
		z"/>
</g>
<g>
	<g>
		<g>
			<g>
				<path class="st3" d="M248.08,302.3c-1.19,4.95-4.03,25.84-3.11,30.61c0.92,4.77,8.43,16.09,15.35,19.15
					c6.92,3.06,29.15,9.44,33.81,13.4s9.69,9.57,16.15,10.59c0.57,5.45,8.28,8.24,8.28,8.24s-3.43,5.65-1.37,7.13
					c2.06,1.48,7.06,1.33,8.33-3.41c0.77,3.02,7.43,8.07,10.51,6.95c3.59-1.31,6.38-5.9,6.45-11.54c0,0,2.26,2.02,4.73,1.01
					c2.48-1.01,2.66-8.46-0.12-14.51c-2.79-6.06-12.22-12.17-16.14-13.48c-3.92-1.31-10.55-0.94-13.14-3.14s-21.9-16-25.74-17.75
					c-3.84-1.75-6.67-7.16-5.25-12.15"/>
				<path class="st4" d="M335.02,396.05c-1.35,0-2.79-0.58-3.88-1.16c-2.01-1.06-4.27-2.9-5.56-4.71c-0.75,1.22-1.84,2.12-3.19,2.6
					c-1.96,0.7-4.27,0.46-5.75-0.61c-2.16-1.55-0.44-5.49,0.59-7.43c-2.11-0.96-6.87-3.56-7.77-7.9c-5.25-1.08-9.56-4.97-13.37-8.41
					c-0.89-0.8-1.72-1.56-2.56-2.27c-2.89-2.46-13.52-6.12-22.06-9.06c-4.87-1.67-9.07-3.12-11.52-4.2
					c-7.02-3.1-14.86-14.54-15.88-19.82c-0.99-5.14,1.99-26.29,3.12-31l1.8,0.43c-1.21,5.03-3.97,25.73-3.1,30.22
					c0.85,4.41,8.09,15.5,14.81,18.48c2.38,1.05,6.75,2.55,11.37,4.15c9.14,3.14,19.5,6.71,22.66,9.4c0.86,0.73,1.7,1.49,2.6,2.3
					c3.97,3.58,8.08,7.29,13.09,8.08l0.7,0.11l0.07,0.71c0.5,4.82,7.6,7.44,7.67,7.47l1.06,0.38l-0.58,0.96
					c-1.41,2.33-2.42,5.33-1.62,5.9c0.84,0.6,2.5,0.92,4.05,0.37c0.99-0.35,2.29-1.21,2.84-3.27l0.91-3.41l0.87,3.42
					c0.4,1.58,2.97,4.08,5.61,5.47c1.56,0.82,2.9,1.13,3.69,0.84c3.38-1.23,5.78-5.62,5.84-10.68l0.03-2.03l1.51,1.36
					c0.02,0.01,1.87,1.62,3.77,0.84c0.3-0.12,0.59-0.51,0.82-1.09c0.95-2.4,0.67-7.61-1.43-12.18
					c-2.58-5.61-11.69-11.68-15.59-12.99c-1.47-0.49-3.44-0.75-5.34-0.99c-3.11-0.4-6.33-0.82-8.11-2.32
					c-2.39-2.03-21.77-15.9-25.53-17.61c-4.07-1.85-7.35-7.61-5.76-13.24l1.78,0.5c-1.06,3.73,0.63,9.18,4.75,11.05
					c3.89,1.77,23.26,15.6,25.96,17.88c1.36,1.15,4.3,1.53,7.15,1.9c1.99,0.26,4.06,0.52,5.69,1.07
					c4.12,1.38,13.74,7.56,16.69,13.97c2.1,4.57,2.73,10.43,1.47,13.63c-0.43,1.08-1.05,1.8-1.84,2.12
					c-1.65,0.67-3.19,0.27-4.25-0.24c-0.53,5.12-3.26,9.44-6.96,10.79C335.91,395.98,335.47,396.05,335.02,396.05z"/>
			</g>
			<g>
				<path class="st1" d="M326.39,388.24l-1.79-0.46c0.01-0.03,0.67-2.61,0.97-6.31c0.23-2.83-0.87-4.77-3.58-6.3l0.91-1.61
					c3.33,1.88,4.81,4.51,4.52,8.06C327.1,385.49,326.42,388.13,326.39,388.24z"/>
			</g>
			<g>
				<path class="st1" d="M341.54,383.56c-0.23-1.49-0.94-5.64-1.46-6.91c-0.62-1.51-1.87-3.14-3.94-5.13l1.28-1.33
					c2.26,2.18,3.65,4.01,4.37,5.76c0.7,1.7,1.49,6.76,1.58,7.33L341.54,383.56z"/>
			</g>
		</g>
		<g>
			<path class="st5" d="M248.16,303.01c2.35,8.13,3.74,26.29,7.09,30.55c3.35,4.27,14.99,14.51,21.94,15.62
				c6.96,1.11,21.41,8.2,24.45,11.13c3.04,2.93,10.33,8.69,12.92,12.18c2.59,3.49,4.37,7.41,6.29,5.33c1.92-2.08,0.08-5.29,3.1-5.62
				c3.03-0.32,4.18,5.26,8.45,5.69s1.88-5.72,4.63-6.8c2.75-1.08,4.92,0.06,8.95,4.26s3.04,5.17,3.04,5.17l-0.54,2.37l-1.3,1.53
				l-2.14,0.22l-2.47-1.13l-0.54,3.41l-1.62,4.09l-3.25,3.37l-3.89,0.41l-2.2-1l-2.83-2.06l-1.96-2.9l-0.73-1.15l-1.43,2.85
				l-2.95,1.18l-3.07-0.11l-1.44-1.49l0.43-2.68l1.71-3.38l-3.26-1.22l-2.79-2.13l-2.07-3.49l-0.43-1.38l-4.31-1.04l-6.28-4.25
				l-3.77-3.38l-4.4-3.24l-7.98-3.44l-8.44-3.03l-6.59-2.44l-13.26-6.23l-3.12-3.23l-3.16-5.65l-4.07-11.68l0.14-4.79l1.06-8.87
				L248.16,303.01z"/>
		</g>
	</g>
	<g>
		<g>
			<path class="st4" d="M335.02,396.05c-1.35,0-2.79-0.58-3.88-1.16c-2.01-1.06-4.27-2.9-5.56-4.71c-0.75,1.22-1.84,2.12-3.19,2.6
				c-1.96,0.7-4.27,0.46-5.75-0.61c-2.16-1.55-0.44-5.49,0.59-7.43c-2.11-0.96-6.87-3.56-7.77-7.9c-5.25-1.08-9.56-4.97-13.37-8.41
				c-0.89-0.8-1.72-1.56-2.56-2.27c-2.89-2.46-13.52-6.12-22.06-9.06c-4.87-1.67-9.07-3.12-11.52-4.2
				c-7.02-3.1-14.86-14.54-15.88-19.82c-0.99-5.14,1.99-26.29,3.12-31l1.8,0.43c-1.21,5.03-3.97,25.73-3.1,30.22
				c0.85,4.41,8.09,15.5,14.81,18.48c2.38,1.05,6.75,2.55,11.37,4.15c9.14,3.14,19.5,6.71,22.66,9.4c0.86,0.73,1.7,1.49,2.6,2.3
				c3.97,3.58,8.08,7.29,13.09,8.08l0.7,0.11l0.07,0.71c0.5,4.82,7.6,7.44,7.67,7.47l1.06,0.38l-0.58,0.96
				c-1.41,2.33-2.42,5.33-1.62,5.9c0.84,0.6,2.5,0.92,4.05,0.37c0.99-0.35,2.29-1.21,2.84-3.27l0.91-3.41l0.87,3.42
				c0.4,1.58,2.97,4.08,5.61,5.47c1.56,0.82,2.9,1.13,3.69,0.84c3.38-1.23,5.78-5.62,5.84-10.68l0.03-2.03l1.51,1.36
				c0.02,0.01,1.87,1.62,3.77,0.84c0.3-0.12,0.59-0.51,0.82-1.09c0.95-2.4,0.67-7.61-1.43-12.18c-2.58-5.61-11.69-11.68-15.59-12.99
				c-1.47-0.49-3.44-0.75-5.34-0.99c-3.11-0.4-6.33-0.82-8.11-2.32c-2.39-2.03-21.77-15.9-25.53-17.61
				c-4.07-1.85-7.35-7.61-5.76-13.24l1.78,0.5c-1.06,3.73,0.63,9.18,4.75,11.05c3.89,1.77,23.26,15.6,25.96,17.88
				c1.36,1.15,4.3,1.53,7.15,1.9c1.99,0.26,4.06,0.52,5.69,1.07c4.12,1.38,13.74,7.56,16.69,13.97c2.1,4.57,2.73,10.43,1.47,13.63
				c-0.43,1.08-1.05,1.8-1.84,2.12c-1.65,0.67-3.19,0.27-4.25-0.24c-0.53,5.12-3.26,9.44-6.96,10.79
				C335.91,395.98,335.47,396.05,335.02,396.05z"/>
		</g>
		<g>
			<path class="st1" d="M326.39,388.24l-1.79-0.46c0.01-0.03,0.67-2.61,0.97-6.31c0.23-2.83-0.87-4.77-3.58-6.3l0.91-1.61
				c3.33,1.88,4.81,4.51,4.52,8.06C327.1,385.49,326.42,388.13,326.39,388.24z"/>
		</g>
		<g>
			<path class="st1" d="M341.54,383.56c-0.23-1.49-0.94-5.64-1.46-6.91c-0.62-1.51-1.87-3.14-3.94-5.13l1.28-1.33
				c2.26,2.18,3.65,4.01,4.37,5.76c0.7,1.7,1.49,6.76,1.58,7.33L341.54,383.56z"/>
		</g>
	</g>
</g>
<g>
	<path class="st2" d="M72.47,260.3c2.67,5.59-0.68,20.58-2.02,23.65c-1.33,3.07-6.77,13.24-10.76,14.58s-5.77,0.29-6.47-0.7
		s-1.96-5.13-1.56-7.78c0.4-2.65,4.87-6.97,9.53-12.48C67.23,270.44,66.56,268.88,72.47,260.3z"/>
	<path class="st1" d="M56.34,300.08c-2.22,0-3.34-0.98-3.87-1.73c-0.84-1.19-2.15-5.58-1.72-8.45c0.34-2.26,2.87-5.12,6.37-9.08
		c1.09-1.23,2.22-2.5,3.37-3.86c3.4-4.02,4.62-6.21,6.17-8.99c1.17-2.11,2.5-4.5,5.05-8.2l0.91-1.31l0.69,1.44
		c2.87,6-0.61,21.21-2,24.41c-1.14,2.62-6.73,13.55-11.31,15.09C58.53,299.89,57.33,300.08,56.34,300.08z M72.19,262.36
		c-1.84,2.78-2.94,4.75-3.92,6.51c-1.59,2.87-2.85,5.13-6.37,9.29c-1.17,1.38-2.3,2.65-3.39,3.89c-3.04,3.44-5.67,6.4-5.93,8.12
		c-0.35,2.36,0.83,6.3,1.4,7.11c0.38,0.53,1.66,1.63,5.42,0.36c3.41-1.15,8.61-10.41,10.21-14.07
		C70.73,280.99,73.59,268.58,72.19,262.36z"/>
</g>
<g>
	<path class="st2" d="M72.29,235.55c-0.49,5.29-1.82,9.73-4.64,15.99c-1.84,4.07-5.46,8.66-8.73,10s-4.16-0.94-3.77-3.64
		c0.39-2.7,4.71-9.41,7.17-12.33C64.79,242.65,69.47,237.95,72.29,235.55z"/>
	<path class="st1" d="M57.19,262.86c-0.69,0-1.29-0.2-1.79-0.59c-1.05-0.82-1.47-2.42-1.17-4.5c0.44-3.03,5.03-10.01,7.38-12.8
		c2.5-2.96,7.21-7.69,10.08-10.13l1.73-1.46l-0.21,2.25c-0.49,5.29-1.82,9.86-4.72,16.28c-1.84,4.08-5.61,8.99-9.23,10.47
		C58.5,262.7,57.81,262.86,57.19,262.86z M71.08,237.86c-2.71,2.5-6.08,5.96-8.05,8.3c-2.5,2.97-6.62,9.46-6.97,11.87
		c-0.19,1.34-0.01,2.4,0.47,2.78c0.51,0.4,1.49,0.09,2.03-0.13c3.14-1.28,6.59-5.86,8.24-9.52
		C69.2,245.86,70.46,242.01,71.08,237.86z"/>
</g>
<g>
	<path class="st5" d="M175.89,377.76c-7.19,4.51-13.6,19.04-13.7,27.84s1.36,19.13,4.57,28.29c3.21,9.16,6.61,16,4.18,24.84
		c-2.42,8.83-6.06,6.48-4.15,13.45c1.91,6.97,26.62,25.06,40.71,26.77c14.09,1.71,13.95-13.67,11.56-17.11
		c-2.39-3.43-10.65-12.27-11.19-18.48c-0.55-6.21,4.28-22.48,7.81-28.44c3.53-5.96,12.85-13.52,16.08-21.67
		c3.23-8.15-9.48-25.77-20.2-31.12C200.84,376.77,183.58,372.93,175.89,377.76z"/>
	<path class="st4" d="M209.61,500c-0.7,0-1.43-0.04-2.22-0.14c-13.79-1.68-39.36-19.67-41.49-27.44c-1.15-4.19-0.44-5.42,1.02-7.4
		c0.95-1.28,2.13-2.88,3.13-6.54c2.02-7.36-0.14-13.24-2.86-20.68c-0.43-1.17-0.87-2.37-1.3-3.61c-3.05-8.68-4.73-19.11-4.63-28.61
		c0.1-8.96,6.64-23.92,14.13-28.62l0,0c4.7-2.95,12.02-2.59,17.33-1.76c6.4,0.99,13.6,3.27,19.24,6.09
		c5.28,2.64,11.29,8.32,15.68,14.82c4.76,7.05,6.57,13.41,4.97,17.47c-2,5.06-6.27,9.89-10.04,14.14c-2.44,2.76-4.75,5.37-6.11,7.66
		c-3.49,5.87-8.21,21.86-7.68,27.89c0.4,4.58,5.42,10.89,8.74,15.06c0.94,1.18,1.75,2.2,2.29,2.97c1.63,2.34,2.24,8.97-0.56,13.62
		C217.82,497.33,215,500,209.61,500z M175.89,377.76l0.49,0.78c-5.75,3.61-13.16,17.08-13.27,27.07c-0.1,9.29,1.54,19.49,4.52,27.97
		c0.43,1.23,0.87,2.42,1.29,3.58c2.73,7.45,5.08,13.88,2.91,21.8c-1.09,3.99-2.44,5.81-3.43,7.15c-1.19,1.62-1.69,2.29-0.73,5.81
		c1.79,6.54,26.08,24.41,39.93,26.1c4.72,0.57,8.1-0.79,10.06-4.05c2.47-4.1,1.8-9.93,0.63-11.62c-0.5-0.72-1.3-1.72-2.22-2.88
		c-3.46-4.34-8.68-10.91-9.13-16.05c-0.57-6.44,4.25-22.78,7.94-28.99c1.45-2.44,3.81-5.11,6.31-7.94c3.66-4.14,7.82-8.84,9.7-13.6
		c3.01-7.61-9.58-24.87-19.76-29.95c-11.19-5.59-27.67-8.87-34.77-4.42L175.89,377.76z"/>
</g>
<g>
	<path class="st3" d="M190.42,285.79c-25.6,20.36-38.92,60.18-38.92,70.65c-6.29,1.8-45.21-9.88-70.95-33.83
		s-23.35-61.24-13.77-92.81c-25.15,11.98-33.53,36.52-36.23,66.16c-1.78,19.56,5.09,53.89,20.66,73.05
		c15.57,19.16,50.21,51.3,114.65,61.97c15.95,17.04,34.4,19.76,56.8,21.59c22.4,1.83,44.08-12.34,48.73-16.15
		c4.65-3.8,20.99-16.62,25.64-22.96c4.65-6.34,8.73-14.46,8.73-37.05c0-22.59-8.55-46.91-14.23-56.77
		c-5.68-9.86-11.13-20.01-12.26-25.17c-1.13-5.16-8.17-19.98-8.59-26.67c-0.42-6.69-40.01-2.18-40.01-2.18l-31.13,6.76
		L190.42,285.79z"/>
	<path class="st4" d="M226.64,453.66c-1.35,0-2.7-0.05-4.06-0.16c-22.55-1.84-41.1-4.62-57.19-21.65
		c-28.39-4.74-53.85-14.12-75.68-27.88c-10.57-6.66-25.95-18.03-39.22-34.37c-15.31-18.84-22.75-52.94-20.86-73.71
		c3.25-35.72,14.58-56.36,36.75-66.91l1.89-0.9l-0.61,2c-8.56,28.21-13.16,67.05,13.52,91.86c24.53,22.82,61.62,34.62,69.42,33.74
		c0.29-5.82,3.69-18.05,9.93-31.25c5.53-11.7,15.09-28,29.21-39.27l9.25-13.59l31.58-6.86c3.49-0.4,34.24-3.74,39.94,1.03
		c0.68,0.57,1.05,1.25,1.1,2.01c0.25,3.96,3.05,11.25,5.3,17.11c1.52,3.95,2.82,7.36,3.28,9.42c1.2,5.5,7.51,16.85,12.15,24.91
		c5.96,10.35,14.35,34.95,14.35,57.23c0,21.19-3.41,30.09-8.91,37.6c-4.14,5.65-17.27,16.24-23.58,21.33
		c-0.89,0.72-1.65,1.33-2.22,1.8C266.46,441.66,247.03,453.66,226.64,453.66z M65.28,231.58c-20.27,10.51-30.73,30.52-33.82,64.48
		c-0.91,9.96,0.51,23.55,3.8,36.36c3.75,14.62,9.66,27.41,16.66,36.02c7.24,8.91,19.84,22.04,38.77,33.97
		c21.7,13.68,47.04,22.99,75.31,27.67l0.31,0.05l0.21,0.23c15.69,16.76,33.95,19.48,56.2,21.3c21.21,1.73,42.34-11.25,48.07-15.94
		c0.58-0.47,1.34-1.08,2.23-1.81c6.25-5.04,19.25-15.53,23.25-20.99c4.33-5.9,8.55-13.58,8.56-36.5c0-21.95-8.25-46.14-14.11-56.31
		c-7.47-12.98-11.4-21.06-12.36-25.44c-0.42-1.93-1.77-5.44-3.2-9.15c-2.41-6.29-5.15-13.41-5.42-17.66
		c-0.01-0.09-0.02-0.36-0.44-0.71c-4.3-3.6-29.2-1.67-38.5-0.62l-30.73,6.67l-8.99,13.22l-0.11,0.09
		c-25.31,20.12-38.57,59.84-38.57,69.93v0.7l-0.67,0.19c-6.52,1.87-45.58-9.62-71.84-34.04C53.18,298.42,56.98,260.1,65.28,231.58z"
		/>
</g>
<g>
	<path class="st6" d="M151.5,356.45"/>
</g>
<g>
	<path class="st4" d="M165.01,431.35c-0.11-0.27-2.79-6.57-3.73-10.84l1.8-0.39c0.9,4.1,3.59,10.44,3.62,10.51L165.01,431.35z"/>
</g>
<g>
	<path class="st4" d="M154.33,388.1c-3.62-12.45-3.93-23-3.75-31.68l1.85,0.04c-0.18,8.54,0.12,18.91,3.68,31.12L154.33,388.1z"/>
</g>
<g>
	<path class="st5" d="M276.38,285.88c-1.8-7.31-6.44-12.98-6.44-12.98l-53.15-6.39h-18.22c0,0-11.54,7.64-1.85,17.01
		c6.87,6.65,44.4,11.38,66.15,11.24C271.77,294.71,275.95,287.78,276.38,285.88z"/>
</g>
<g>
	<path class="st5" d="M39.99,261.93c0.53,10.5,3.69,55.37,9.76,69.62c6.07,14.25,23.71,33.07,43.89,48.47s42.74,25.01,62.84,25.67
		c18.44,8.21,40.74,22.64,40.74,22.64l3.43,9.67l9.11,12.78l-17.47-3.14l-8.9-3.52l-10.47-6.43l-7.08-6.69l-12.37-2.38l-21.06-5.74
		l-15.19-5.66l-22.86-11.47l-12.98-8.49l-11.65-9.2l-10.19-9.63l-8.35-9.4l-8.09-12.67l-5.1-11.84l-3.77-12.36l-3.01-15.74
		l-0.8-13.18v-14.89l2.32-8.62l2.77-12.89L39.99,261.93z"/>
</g>
<g>
	<path class="st7" d="M268.92,300.07c-9.22,0.82-34.04,16.86-36.65,29.7c-2.61,12.83,4.4,56.88,15.11,69.71
		c10.71,12.83,15.35,27.04,15.35,27.04l-0.97,6.54l-0.14,7.42l1.03,1.79l7.59-4.96l11.04-8.8l15.74-15.05l7.48-18.66l1.26-14.42
		l-0.88-17.17l-1.92-11.14l-4.26-15.58l-5.24-13.16l-7.59-13.84l-4.22-8.49C281.65,301.01,278.14,299.25,268.92,300.07z"/>
</g>
<g>
	<path class="st5" d="M194.71,348.71c-2.39,5.66-0.72,14.06,1.43,20.08c2.15,6.01,6.89,12.21,12.79,15.82s14.06,7.26,21.92,12.92
		c7.86,5.66,12.26,12.84,17.3,17.74s6.39,12.59,12.5,17.18c1.03,1.95,0.99,3.46,0.99,3.46l0,4.56l1.03,1.79l3.49-2.09l5.24-3.74
		l4.92-3.98l4.99-3.94l4.58-3.79l-10.26-10.96l-13.75-16.24l-13.65-12.66l-34.68-17.04l-13.15-15.45L194.71,348.71z"/>
</g>
<g>
	<polygon class="st8" points="257.19,397.58 260.43,408.83 262.89,419 262.89,425.15 261.76,433.06 261.72,437.97 262.65,442.27 
		270.25,437.31 279.18,430.1 289.25,422.39 293.26,405.69 274.45,392.95 	"/>
</g>
<g>
	<path class="st4" d="M226.64,453.66c-1.35,0-2.7-0.05-4.06-0.16c-22.55-1.84-41.1-4.62-57.19-21.65
		c-28.39-4.74-53.85-14.12-75.68-27.88c-10.57-6.66-25.95-18.03-39.22-34.37c-15.31-18.84-22.75-52.94-20.86-73.71
		c3.25-35.72,14.58-56.36,36.75-66.91l1.89-0.9l-0.61,2c-8.56,28.21-13.16,67.05,13.52,91.86c24.53,22.82,61.62,34.62,69.42,33.74
		c0.29-5.82,3.69-18.05,9.93-31.25c5.53-11.7,15.09-28,29.21-39.27l9.25-13.59l31.58-6.86c3.49-0.4,34.24-3.74,39.94,1.03
		c0.68,0.57,1.05,1.25,1.1,2.01c0.25,3.96,3.05,11.25,5.3,17.11c1.52,3.95,2.82,7.36,3.28,9.42c1.2,5.5,7.51,16.85,12.15,24.91
		c5.96,10.35,14.35,34.95,14.35,57.23c0,21.19-3.41,30.09-8.91,37.6c-4.14,5.65-17.27,16.24-23.58,21.33
		c-0.89,0.72-1.65,1.33-2.22,1.8C266.46,441.66,247.03,453.66,226.64,453.66z M65.28,231.58c-20.27,10.51-30.73,30.52-33.82,64.48
		c-0.91,9.96,0.51,23.55,3.8,36.36c3.75,14.62,9.66,27.41,16.66,36.02c7.24,8.91,19.84,22.04,38.77,33.97
		c21.7,13.68,47.04,22.99,75.31,27.67l0.31,0.05l0.21,0.23c15.69,16.76,33.95,19.48,56.2,21.3c21.21,1.73,42.34-11.25,48.07-15.94
		c0.58-0.47,1.34-1.08,2.23-1.81c6.25-5.04,19.25-15.53,23.25-20.99c4.33-5.9,8.55-13.58,8.56-36.5c0-21.95-8.25-46.14-14.11-56.31
		c-7.47-12.98-11.4-21.06-12.36-25.44c-0.42-1.93-1.77-5.44-3.2-9.15c-2.41-6.29-5.15-13.41-5.42-17.66
		c-0.01-0.09-0.02-0.36-0.44-0.71c-4.3-3.6-29.2-1.67-38.5-0.62l-30.73,6.67l-8.99,13.22l-0.11,0.09
		c-25.31,20.12-38.57,59.84-38.57,69.93v0.7l-0.67,0.19c-6.52,1.87-45.58-9.62-71.84-34.04C53.18,298.42,56.98,260.1,65.28,231.58z"
		/>
</g>
<g>
	<g>
		<g>
			<path class="st3" d="M202.14,313.07c-2.01,5.68-7.93,29.91-7.43,35.65c0.5,5.73,7.94,19.97,15.7,24.43
				c7.77,4.45,33.15,14.71,38.14,19.94c4.99,5.23,10.22,12.46,17.7,14.46c0,6.48,8.72,10.72,8.72,10.72s-4.74,6.23-2.49,8.23
				s8.14,2.43,10.22-2.99c0.54,3.65,7.75,10.42,11.51,9.48c4.39-1.1,8.23-6.16,9.01-12.79c0,0,2.41,2.66,5.45,1.77
				s4.18-9.62,1.65-17.1c-2.53-7.47-12.89-15.83-17.34-17.86s-12.3-2.41-15.08-5.32s-23.81-21.53-28.11-24.06
				c-4.31-2.53-6.97-9.24-4.69-14.94c2.28-5.7,4.43-10.76,4.56-18.87c0.13-8.11-0.13-15.58-4.31-20.52
				c-4.18-4.94-11.27-7.22-15.07-8.48"/>
			<path class="st4" d="M293.45,433.98c-1.72,0-3.54-0.96-4.87-1.84c-2.3-1.54-4.79-4.07-6.04-6.4c-1.02,1.43-2.44,2.41-4.14,2.82
				c-2.3,0.56-4.99-0.01-6.54-1.39c-2.31-2.05,0.33-6.54,1.74-8.6c-2.28-1.31-7.8-5.01-8.25-10.33c-6.06-1.88-10.66-7-14.74-11.53
				c-0.95-1.05-1.84-2.05-2.74-2.99c-3.12-3.28-15.2-8.9-24.9-13.42c-5.52-2.57-10.28-4.78-13.03-6.36
				c-7.84-4.49-15.62-18.85-16.16-25.15c-0.52-6.01,5.63-30.79,7.48-36.03l1.74,0.62c-2.04,5.77-7.85,29.85-7.38,35.26
				c0.46,5.32,7.65,19.35,15.24,23.71c2.68,1.54,7.64,3.84,12.89,6.29c10.36,4.82,22.1,10.28,25.46,13.82
				c0.92,0.96,1.82,1.97,2.77,3.03c4.05,4.51,8.64,9.61,14.49,11.17l0.69,0.18v0.71c0,5.82,8.12,9.85,8.2,9.89l1.01,0.49l-0.68,0.9
				c-1.77,2.33-3.66,6.05-2.61,6.98c0.95,0.84,2.93,1.45,4.88,0.97c1.25-0.31,2.94-1.18,3.87-3.6l1.26-3.3l0.51,3.49
				c0.29,1.94,3.03,5.26,5.99,7.25c1.77,1.19,3.37,1.72,4.38,1.47c4.19-1.05,7.61-5.98,8.32-12l0.24-2.02l1.36,1.51
				c0.02,0.02,2.07,2.22,4.5,1.51c0.41-0.12,0.84-0.57,1.2-1.27c1.43-2.74,1.75-8.97-0.17-14.65c-2.36-6.96-12.39-15.28-16.84-17.31
				c-1.68-0.77-3.98-1.31-6.2-1.84c-3.59-0.85-7.3-1.73-9.17-3.68c-2.57-2.69-23.69-21.42-27.91-23.9
				c-4.5-2.65-7.61-9.74-5.08-16.08l0.26-0.64c2.21-5.51,4.12-10.27,4.23-17.9c0.12-7.8-0.1-15.19-4.09-19.9
				c-3.92-4.63-10.73-6.9-14.4-8.12l-0.26-0.09l0.58-1.75l0.26,0.09c3.83,1.28,10.97,3.65,15.22,8.68c4.4,5.2,4.65,12.96,4.52,21.13
				c-0.12,7.97-2.19,13.11-4.37,18.55l-0.26,0.64c-1.73,4.32-0.39,11.05,4.3,13.8c4.35,2.56,25.42,21.2,28.31,24.22
				c1.49,1.56,4.93,2.38,8.26,3.16c2.31,0.55,4.69,1.11,6.54,1.95c4.83,2.2,15.27,10.86,17.83,18.4c1.9,5.6,1.92,12.52,0.06,16.09
				c-0.61,1.18-1.4,1.92-2.32,2.19c-2.09,0.61-3.89-0.16-5.04-0.92c-1.19,6.02-4.93,10.82-9.45,11.95
				C294.11,433.95,293.78,433.98,293.45,433.98z"/>
		</g>
		<g>
			<path class="st0" d="M175.68,327.78c2.51,7.54,5.93,13.56,12.16,21.72c4.05,5.31,10.88,10.77,16.1,11.61
				c5.22,0.84,5.74-2.77,4.26-6.57s-10.04-12.12-14.62-15.54C189.02,335.59,180.61,330.32,175.68,327.78z"/>
			<path class="st1" d="M205.38,362.17c-0.49,0-1.01-0.05-1.57-0.14c-5.66-0.91-12.68-6.71-16.69-11.96
				c-6.37-8.34-9.82-14.5-12.31-21.99l-0.71-2.15l2.01,1.04c4.98,2.57,13.41,7.85,18.04,11.31c4.34,3.24,13.3,11.76,14.93,15.94
				c1.08,2.77,1.04,5.08-0.11,6.5C208.18,361.68,206.98,362.17,205.38,362.17z M177.35,329.73c2.36,6.32,5.65,11.91,11.23,19.22
				c3.7,4.84,10.39,10.43,15.51,11.26c1.17,0.19,2.72,0.23,3.43-0.66c0.69-0.86,0.63-2.6-0.18-4.67
				c-1.34-3.45-9.62-11.63-14.31-15.13C189.07,336.79,182.28,332.47,177.35,329.73z"/>
		</g>
		<g>
			<path class="st0" d="M183.41,365.74c5.06,4.36,10.13,7.22,18.15,10.42c5.21,2.08,12.5,3.07,16.62,1.43
				c4.13-1.64,2.94-4.47,0.24-6.58s-12.47-4.41-17.25-4.9C196.4,365.62,188.05,365.45,183.41,365.74z"/>
			<path class="st1" d="M212.97,379.34c-3.92,0-8.36-0.96-11.75-2.32c-8.2-3.27-13.37-6.24-18.41-10.58l-1.72-1.48l2.26-0.14
				c4.71-0.3,13.08-0.12,17.91,0.38c4.54,0.47,14.72,2.76,17.72,5.09c2.02,1.57,3.01,3.3,2.78,4.87c-0.2,1.41-1.29,2.51-3.24,3.29
				C216.96,379.07,215.04,379.34,212.97,379.34z M185.85,366.56c4.33,3.4,9.05,5.96,16.04,8.75c4.73,1.89,11.92,3.03,15.94,1.43
				c0.89-0.35,1.98-0.96,2.1-1.84c0.12-0.86-0.66-2.04-2.09-3.15c-2.44-1.9-11.9-4.21-16.78-4.72
				C197.06,366.62,190.57,366.43,185.85,366.56z"/>
		</g>
		<g>
			<path class="st1" d="M283.56,423.82l-1.73-0.65c0.01-0.03,1.11-3,1.93-7.33c0.64-3.37-0.45-5.85-3.51-8.02l1.07-1.51
				c3.63,2.58,5.02,5.8,4.26,9.87C284.73,420.68,283.61,423.69,283.56,423.82z"/>
		</g>
		<g>
			<path class="st1" d="M302.3,420.23c-0.09-1.79-0.41-6.78-0.87-8.35c-0.55-1.87-1.83-3.97-4.04-6.58l1.41-1.19
				c2.38,2.82,3.78,5.13,4.4,7.26c0.61,2.11,0.93,8.51,0.95,8.78L302.3,420.23z"/>
		</g>
	</g>
	<g>
		<path class="st5" d="M202.14,313.91c1.76,9.86,1.16,31.4,4.58,36.83c3.42,5.43,15.85,18.93,23.9,21.1s24.19,12.29,27.41,16.11
			c3.22,3.82,11.09,11.5,13.7,15.93s4.23,9.26,6.74,7.04c2.51-2.21,0.74-6.22,4.35-6.23c3.6-0.01,4.28,6.71,9.24,7.74
			c4.96,1.03,2.92-6.5,6.29-7.43c3.37-0.93,5.79,0.68,10.01,6.12s2.94,6.47,2.94,6.47l-0.93,2.73l-1.71,1.64h-2.54l-2.77-1.64
			l-1.06,3.95l-2.41,4.61l-4.24,3.57h-4.62l-2.46-1.45l-3.08-2.77l-1.95-3.65l-0.71-1.44l-2.04,3.18l-3.62,1.03l-3.6-0.5l-1.51-1.93
			l0.84-3.1l2.43-3.77l-3.69-1.84l-3.02-2.85l-2.01-4.36l-0.34-1.68l-4.94-1.76l-6.87-5.78l-4.02-4.44l-4.78-4.36l-8.97-5.03
			l-9.55-4.61l-7.46-3.69l-14.83-8.97l-3.27-4.19l-3.02-7.04l-3.35-14.25l0.75-5.62l2.35-10.31L202.14,313.91z"/>
	</g>
</g>
<g>
	<path class="st4" d="M293.45,433.98c-1.72,0-3.54-0.96-4.87-1.84c-2.3-1.54-4.79-4.07-6.04-6.4c-1.02,1.43-2.44,2.41-4.14,2.82
		c-2.3,0.56-4.99-0.01-6.54-1.39c-2.31-2.05,0.33-6.54,1.74-8.6c-2.28-1.31-7.8-5.01-8.25-10.33c-6.06-1.88-10.66-7-14.74-11.53
		c-0.95-1.05-1.84-2.05-2.74-2.99c-3.12-3.28-15.2-8.9-24.9-13.42c-5.52-2.57-10.28-4.78-13.03-6.36
		c-7.84-4.49-15.62-18.85-16.16-25.15c-0.52-6.01,5.63-30.79,7.48-36.03l1.74,0.62c-2.04,5.77-7.85,29.85-7.38,35.26
		c0.46,5.32,7.65,19.35,15.24,23.71c2.68,1.54,7.64,3.84,12.89,6.29c10.36,4.82,22.1,10.28,25.46,13.82
		c0.92,0.96,1.82,1.97,2.77,3.03c4.05,4.51,8.64,9.61,14.49,11.17l0.69,0.18v0.71c0,5.82,8.12,9.85,8.2,9.89l1.01,0.49l-0.68,0.9
		c-1.77,2.33-3.66,6.05-2.61,6.98c0.95,0.84,2.93,1.45,4.88,0.97c1.25-0.31,2.94-1.18,3.87-3.6l1.26-3.3l0.51,3.49
		c0.29,1.94,3.03,5.26,5.99,7.25c1.77,1.19,3.37,1.72,4.38,1.47c4.19-1.05,7.61-5.98,8.32-12l0.24-2.02l1.36,1.51
		c0.02,0.02,2.07,2.22,4.5,1.51c0.41-0.12,0.84-0.57,1.2-1.27c1.43-2.74,1.75-8.97-0.17-14.65c-2.36-6.96-12.39-15.28-16.84-17.31
		c-1.68-0.77-3.98-1.31-6.2-1.84c-3.59-0.85-7.3-1.73-9.17-3.68c-2.57-2.69-23.69-21.42-27.91-23.9c-4.5-2.65-7.61-9.74-5.08-16.08
		l0.26-0.64c2.21-5.51,4.12-10.27,4.23-17.9c0.12-7.8-0.1-15.19-4.09-19.9c-3.92-4.63-10.73-6.9-14.4-8.12l-0.26-0.09l0.58-1.75
		l0.26,0.09c3.83,1.28,10.97,3.65,15.22,8.68c4.4,5.2,4.65,12.96,4.52,21.13c-0.12,7.97-2.19,13.11-4.37,18.55l-0.26,0.64
		c-1.73,4.32-0.39,11.05,4.3,13.8c4.35,2.56,25.42,21.2,28.31,24.22c1.49,1.56,4.93,2.38,8.26,3.16c2.31,0.55,4.69,1.11,6.54,1.95
		c4.83,2.2,15.27,10.86,17.83,18.4c1.9,5.6,1.92,12.52,0.06,16.09c-0.61,1.18-1.4,1.92-2.32,2.19c-2.09,0.61-3.89-0.16-5.04-0.92
		c-1.19,6.02-4.93,10.82-9.45,11.95C294.11,433.95,293.78,433.98,293.45,433.98z"/>
</g>
<g>
	<path class="st0" d="M175.68,327.78c2.51,7.54,5.93,13.56,12.16,21.72c4.05,5.31,10.88,10.77,16.1,11.61
		c5.22,0.84,5.74-2.77,4.26-6.57s-10.04-12.12-14.62-15.54C189.02,335.59,180.61,330.32,175.68,327.78z"/>
	<path class="st1" d="M205.38,362.17c-0.49,0-1.01-0.05-1.57-0.14c-5.66-0.91-12.68-6.71-16.69-11.96
		c-6.37-8.34-9.82-14.5-12.31-21.99l-0.71-2.15l2.01,1.04c4.98,2.57,13.41,7.85,18.04,11.31c4.34,3.24,13.3,11.76,14.93,15.94
		c1.08,2.77,1.04,5.08-0.11,6.5C208.18,361.68,206.98,362.17,205.38,362.17z M177.35,329.73c2.36,6.32,5.65,11.91,11.23,19.22
		c3.7,4.84,10.39,10.43,15.51,11.26c1.17,0.19,2.72,0.23,3.43-0.66c0.69-0.86,0.63-2.6-0.18-4.67c-1.34-3.45-9.62-11.63-14.31-15.13
		C189.07,336.79,182.28,332.47,177.35,329.73z"/>
</g>
<g>
	<path class="st0" d="M183.41,365.74c5.06,4.36,10.13,7.22,18.15,10.42c5.21,2.08,12.5,3.07,16.62,1.43
		c4.13-1.64,2.94-4.47,0.24-6.58s-12.47-4.41-17.25-4.9C196.4,365.62,188.05,365.45,183.41,365.74z"/>
	<path class="st1" d="M212.97,379.34c-3.92,0-8.36-0.96-11.75-2.32c-8.2-3.27-13.37-6.24-18.41-10.58l-1.72-1.48l2.26-0.14
		c4.71-0.3,13.08-0.12,17.91,0.38c4.54,0.47,14.72,2.76,17.72,5.09c2.02,1.57,3.01,3.3,2.78,4.87c-0.2,1.41-1.29,2.51-3.24,3.29
		C216.96,379.07,215.04,379.34,212.97,379.34z M185.85,366.56c4.33,3.4,9.05,5.96,16.04,8.75c4.73,1.89,11.92,3.03,15.94,1.43
		c0.89-0.35,1.98-0.96,2.1-1.84c0.12-0.86-0.66-2.04-2.09-3.15c-2.44-1.9-11.9-4.21-16.78-4.72
		C197.06,366.62,190.57,366.43,185.85,366.56z"/>
</g>
<g>
	<path class="st1" d="M283.56,423.82l-1.73-0.65c0.01-0.03,1.11-3,1.93-7.33c0.64-3.37-0.45-5.85-3.51-8.02l1.07-1.51
		c3.63,2.58,5.02,5.8,4.26,9.87C284.73,420.68,283.61,423.69,283.56,423.82z"/>
</g>
<g>
	<path class="st1" d="M302.3,420.23c-0.09-1.79-0.41-6.78-0.87-8.35c-0.55-1.87-1.83-3.97-4.04-6.58l1.41-1.19
		c2.38,2.82,3.78,5.13,4.4,7.26c0.61,2.11,0.93,8.51,0.95,8.78L302.3,420.23z"/>
</g>
<g>
	<path class="st0" d="M354.64,223.03c-9.3-31.18-32.14-86.13-56.87-104c-24.73-17.87-36.99-24.99-57.82-25.26
		c-20.83-0.27-44.9,1.54-69.91,23.32c-6.65-12.41-39.52-1.65-39.52-1.65s-4.6,39.59-3.65,45.62c-12.78,2.71-11.87,14.84-11.57,19.59
		c0.3,4.75,13.59,31.57,22.46,42.38c8.86,10.8,37.67,44.98,48.43,51.48s25.32,6.5,33.87,2.38s18.68-7.61,35.77-2.38
		C272.92,279.73,330.99,266.52,354.64,223.03z"/>
	<path class="st1" d="M205.93,280.63c-6.68,0-13.98-1.57-20.22-5.33c-12.28-7.41-47.19-49.88-48.67-51.68
		c-9.06-11.04-22.35-37.85-22.66-42.91l-0.01-0.16c-0.3-4.7-1.07-17.02,11.51-20.2c-0.53-8.16,3.55-43.46,3.73-45.01l0.07-0.59
		l0.56-0.18c1.34-0.44,32.02-10.31,40.03,1.12c25.23-21.56,49.19-23.1,69.7-22.83c21.35,0.28,34.17,7.96,58.35,25.43
		c13.95,10.08,26.47,31.31,34.51,47.34c8.75,17.46,17.24,38.82,22.71,57.14l0.11,0.37l-0.18,0.34
		c-10.33,18.99-28.91,34.76-52.32,44.42c-21.09,8.7-39.45,9.98-47.57,7.5c-17.08-5.22-27.07-1.54-35.1,2.33
		C216.68,279.53,211.52,280.63,205.93,280.63z M131.37,116.14c-0.57,4.97-4.44,39.34-3.58,44.78l0.14,0.86l-0.86,0.18
		c-11.86,2.52-11.16,13.7-10.86,18.47l0.01,0.16c0.27,4.27,13.05,30.63,22.25,41.85c13.39,16.32,38.6,45.48,48.2,51.27
		c10.91,6.58,25.14,6.12,32.99,2.34c8.34-4.02,18.73-7.85,36.44-2.43c8.07,2.47,26.57,0.71,46.33-7.44
		c22.89-9.44,41.06-24.79,51.22-43.26c-9.64-32.16-32.51-85.88-56.42-103.15c-24.37-17.61-36.38-24.81-57.29-25.08
		c-20.4-0.26-44.25,1.28-69.29,23.09l-0.87,0.76l-0.55-1.02C163.47,106.78,135.68,114.82,131.37,116.14z"/>
</g>
<g>
	<path class="st2" d="M130.52,166.31c7.69,7.18,45.48,57.11,60.87,63.49c15.39,6.38,32.28,11.42,48.56,12.79s55.93,3.71,71.55,3.77
		s24.57,0,24.57,0l-6.38,5.31l-7.69,5.39l-10.29,5.87l-8.68,3.58l-10.52,4.24l-15.55,3.75l-8.22,0.95h-6.67l-6.25-0.95l-5-1.33
		l-8.05-1.2l-9.48,0.43l-8.95,2.57l-9.18,3.65l-6.65,1.02l-9.4-0.81l-18.22-9.2l-7.08-5.9l-9.47-9.96l-11.24-12.6l-13.7-16.09
		l-12.74-19.26l-4.79-9.1l-6.57-16.07l1.2-12.22l2.3-2.96l6.1-3.87l1.86-2.35L130.52,166.31z"/>
</g>
<g>
	<path class="st1" d="M205.93,280.63c-6.68,0-13.98-1.57-20.22-5.33c-12.28-7.41-47.19-49.88-48.67-51.68
		c-9.06-11.04-22.35-37.85-22.66-42.91l-0.01-0.16c-0.3-4.7-1.07-17.02,11.51-20.2c-0.53-8.16,3.55-43.46,3.73-45.01l0.07-0.59
		l0.56-0.18c1.34-0.44,32.02-10.31,40.03,1.12c25.23-21.56,49.19-23.1,69.7-22.83c21.35,0.28,34.17,7.96,58.35,25.43
		c13.95,10.08,26.47,31.31,34.51,47.34c8.75,17.46,17.24,38.82,22.71,57.14l0.11,0.37l-0.18,0.34
		c-10.33,18.99-28.91,34.76-52.32,44.42c-21.09,8.7-39.45,9.98-47.57,7.5c-17.08-5.22-27.07-1.54-35.1,2.33
		C216.68,279.53,211.52,280.63,205.93,280.63z M131.37,116.14c-0.57,4.97-4.44,39.34-3.58,44.78l0.14,0.86l-0.86,0.18
		c-11.86,2.52-11.16,13.7-10.86,18.47l0.01,0.16c0.27,4.27,13.05,30.63,22.25,41.85c13.39,16.32,38.6,45.48,48.2,51.27
		c10.91,6.58,25.14,6.12,32.99,2.34c8.34-4.02,18.73-7.85,36.44-2.43c8.07,2.47,26.57,0.71,46.33-7.44
		c22.89-9.44,41.06-24.79,51.22-43.26c-9.64-32.16-32.51-85.88-56.42-103.15c-24.37-17.61-36.38-24.81-57.29-25.08
		c-20.4-0.26-44.25,1.28-69.29,23.09l-0.87,0.76l-0.55-1.02C163.47,106.78,135.68,114.82,131.37,116.14z"/>
</g>
<g>
	<path class="st0" d="M130.85,144.51c-29.65-14.27-52.03-90.92-47-120.01c8.95,26.86,53.71,80.57,62.66,86.72
		C152.11,125.76,130.85,144.51,130.85,144.51z"/>
	<path class="st1" d="M131,145.61l-0.55-0.27c-13.46-6.48-26.94-26.51-36.98-54.97c-8.81-24.98-13.04-51.51-10.53-66.03l0.63-3.61
		l1.16,3.48c5.18,15.55,21.77,38.54,31.19,50.86c13.95,18.24,27.02,32.58,31.12,35.4l0.24,0.16l0.1,0.27
		c2.4,6.25,0.38,14.19-5.84,22.97c-4.62,6.52-9.85,11.15-10.07,11.35L131,145.61z M84.29,28.33C83,43.1,87.2,67.05,95.21,89.75
		c9.74,27.6,22.64,47.09,35.48,53.65c2.99-2.79,19.59-19.01,15.06-31.59C136.56,105.12,95.64,56.2,84.29,28.33z"/>
</g>
<g>
	<path class="st0" d="M192.77,257.46c19.02,9.51,10.07,47-35.81,30.21c19.58-8.95,15.67-20.14,20.14-26.3
		C181.58,255.22,192.77,257.46,192.77,257.46z"/>
	<path class="st1" d="M178.04,292.88c-6.34,0-13.5-1.45-21.4-4.34l-2.11-0.77l2.04-0.93c13.55-6.19,15.51-13.46,17.09-19.3
		c0.67-2.46,1.3-4.79,2.69-6.7c4.77-6.56,16.11-4.37,16.59-4.28l0.12,0.02l0.11,0.05c8.51,4.26,12.19,14.53,8.37,23.39
		c-2.48,5.75-7.66,9.92-14.59,11.76C184.2,292.52,181.22,292.88,178.04,292.88z M159.36,287.54c10.49,3.54,19.83,4.39,27.12,2.46
		c6.37-1.69,11.12-5.49,13.37-10.71c3.47-8.05,0.3-17.03-7.38-20.95c-1.17-0.21-10.78-1.7-14.62,3.58c-1.19,1.64-1.75,3.7-2.4,6.1
		C173.85,273.93,171.88,281.21,159.36,287.54z"/>
</g>
<g>
	<path class="st0" d="M152.56,214.21c10.82,18.31-17.03,44.95-46.47,5.96c21.31,3.1,24.09-8.42,31.19-11.17
		C144.38,206.26,152.56,214.21,152.56,214.21z"/>
	<path class="st1" d="M136.75,241.17c-2.49,0-5.07-0.42-7.69-1.27c-8.12-2.64-16.1-9.09-23.71-19.17l-1.35-1.79l2.22,0.32
		c14.74,2.14,20.33-2.89,24.83-6.94c1.9-1.71,3.69-3.32,5.89-4.17c7.56-2.92,15.91,5.06,16.26,5.41l0.09,0.09l0.06,0.11
		c4.84,8.19,2.36,18.82-5.66,24.19C144.49,240.08,140.75,241.17,136.75,241.17z M108.18,221.36c6.89,8.66,14.28,14.44,21.45,16.78
		c6.27,2.04,12.32,1.42,17.04-1.74c7.29-4.88,9.49-14.15,5.16-21.6c-0.87-0.81-8.13-7.28-14.22-4.93c-1.89,0.73-3.48,2.16-5.32,3.82
		C127.74,217.78,122.14,222.83,108.18,221.36z"/>
</g>
<g>
	<path class="st0" d="M124.88,176.9c0.6,19.14-31.48,26.15-37.6-17.65c14.82,12.54,21.69,5.08,28.2,6.38
		C121.98,166.92,124.88,176.9,124.88,176.9z"/>
	<path class="st1" d="M110.85,192.77c-9.43,0-21.03-8.62-24.49-33.39l-0.33-2.39l1.85,1.56c10.22,8.65,16.49,7.48,21.54,6.55
		c2.16-0.4,4.19-0.78,6.24-0.37c6.97,1.39,9.98,11.49,10.11,11.92l0.03,0.11l0,0.12c0.26,8.35-5.6,15.16-13.65,15.84
		C111.73,192.75,111.29,192.77,110.85,192.77z M88.56,161.47c3.83,22.8,14.9,30.14,23.44,29.41c7.01-0.6,12.13-6.53,11.96-13.82
		c-0.33-1.05-3.13-9.41-8.66-10.52c-1.7-0.34-3.48-0.01-5.54,0.37C104.64,167.85,98.36,169.02,88.56,161.47z"/>
</g>
<g>
	<path class="st1" d="M141.39,160.77l-1.84-0.1c0.33-5.99,9.21-23.58,17.64-25.26l0.36,1.81c-3.14,0.63-7.03,4.37-10.66,10.26
		C143.91,152.31,141.55,158.02,141.39,160.77z"/>
</g>
<g>
	<path class="st1" d="M299.18,170.31c-4.72-20.59-19.3-32.16-30.7-38.25c-13.34-7.12-27.44-9.45-34.48-8.08l-0.35-1.81
		c7.36-1.44,21.98,0.94,35.7,8.26c11.74,6.27,26.75,18.2,31.63,39.46L299.18,170.31z"/>
</g>
<g>
	<path class="st1" d="M212,238.31c-14.61-2.72-28.53-10.34-39.19-21.47c-8.92-9.31-14.35-19.95-13.83-27.09l1.84,0.13
		c-0.47,6.54,4.88,16.86,13.32,25.68c10.39,10.85,23.95,18.29,38.19,20.94L212,238.31z"/>
</g>
<g>
	<path class="st1" d="M232.73,254.67c-3.24,0-6.19-0.33-8.65-1.06l0.53-1.77c6.47,1.93,17.2,1.08,29.44-2.31
		c10.9-3.02,20.64-7.53,24.25-11.22l1.32,1.29C273.07,246.3,249.13,254.67,232.73,254.67z"/>
</g>
<g>
	<path class="st1" d="M205.49,155.74c17.48-15.92,42.7-13.06,61.46,0c18.75,13.06,36.52,31.9,35.17,50.74
		c-1.35,18.84-30.81,18.3-52.01,14.27s-46.5-18.51-51.35-28.9C193.92,181.45,198.26,162.33,205.49,155.74z"/>
</g>
<g>
	<circle class="st0" cx="272.38" cy="196.72" r="12.78"/>
</g>
<g>
	<path class="st0" d="M222.06,114.76c2.7,2.94-14.15,18.05-23.9,18.78c-9.76,0.73-6.1-32.93-6.1-32.93S219.36,111.82,222.06,114.76z
		"/>
	<path class="st1" d="M197.84,134.48c-1.3,0-2.46-0.51-3.44-1.52c-6.03-6.24-3.38-31.37-3.26-32.44l0.13-1.22l1.14,0.47
		c2.81,1.15,27.57,11.37,30.33,14.38l0,0c0.43,0.47,0.82,1.36,0.22,2.88c-2.21,5.59-16.09,16.8-24.73,17.45
		C198.1,134.47,197.97,134.48,197.84,134.48z M192.86,101.94c-0.73,7.82-1.39,25.31,2.88,29.73c0.68,0.71,1.45,1.02,2.36,0.95
		c8.21-0.62,21.39-11.82,23.15-16.28c0.22-0.56,0.2-0.88,0.14-0.95l0,0C219.57,113.41,203.75,106.45,192.86,101.94z"/>
</g>
<g>
	<path class="st3" d="M198.24,407.06c-3.88,7.54-1.98,23.32,2.42,30.94c4.41,7.62,10.93,15.76,18.37,22s13.85,10.39,16.27,19.23
		c2.42,8.83-1.91,8.66,3.29,13.68c5.2,5.02,35.68,7.97,48.67,2.25s5.02-18.88,1.21-20.61s-15.41-5.12-19.05-10.18
		s-7.79-21.52-7.79-28.44s2.35-10.05,0.97-18.71"/>
	<path class="st4" d="M266.8,499.21c-2.22,0-4.52-0.08-6.85-0.23c-8.11-0.53-18.74-2.27-21.99-5.41c-3.12-3.02-3.14-4.44-2.9-6.88
		c0.16-1.59,0.36-3.56-0.64-7.22c-2.02-7.35-6.87-11.31-13.01-16.32c-0.96-0.79-1.95-1.59-2.96-2.44
		c-7.05-5.91-13.82-14.02-18.58-22.24c-4.48-7.75-6.49-23.96-2.45-31.82l1.64,0.84c-3.73,7.25-1.76,22.84,2.4,30.05
		c4.65,8.05,11.27,15.97,18.16,21.75c1,0.84,1.99,1.64,2.94,2.42c6.14,5.01,11.45,9.34,13.62,17.26c1.09,3.99,0.87,6.25,0.7,7.89
		c-0.2,2-0.29,2.83,2.34,5.37c4.88,4.72,34.89,7.69,47.66,2.07c4.35-1.91,6.57-4.81,6.59-8.61c0.03-4.79-3.52-9.46-5.39-10.31
		c-0.8-0.36-2-0.82-3.38-1.34c-5.19-1.97-13.03-4.95-16.04-9.14c-3.22-4.48-7.97-20.51-7.97-28.98c0-2.78,0.37-4.97,0.73-7.09
		c0.55-3.26,1.07-6.35,0.25-11.48l1.82-0.29c0.87,5.43,0.3,8.81-0.25,12.08c-0.34,2.04-0.7,4.15-0.7,6.78
		c0,8.02,4.61,23.72,7.62,27.91c2.68,3.74,10.22,6.6,15.2,8.49c1.41,0.54,2.63,1,3.49,1.39c2.6,1.18,6.5,6.57,6.47,12
		c-0.02,3.16-1.37,7.51-7.69,10.29C282.91,498.08,275.41,499.21,266.8,499.21z"/>
</g>
<g>
	<path class="st5" d="M198.93,405.69c2.12,4.73,6.55,14.32,8.83,19.22s5.24,13.39,11.49,18.5c6.25,5.11,14.03,13.78,26.02,17.61
		c6.03,1.93,7.92,11.36,14.52,14.51c6.6,3.14,18.06,1.15,25.07-2.41c3.61,1.44,5.38,2.77,5.38,2.77l2.98,4.51l1.18,5.22l-2.66,6.57
		l-6.1,3.62l-9.18,1.97l-11.82,0.53l-11.18-0.87l-10.17-2.14l-4.7-2.37l-2.71-4.74l-0.15-7.12l-2.74-7.32l-6.71-7.7l-9.33-7.84
		l-9.13-9.76l-5.37-7.73l-3.84-7.34l-1.61-6.19l-0.86-9.1l0.54-6.19L198.93,405.69z"/>
</g>
<g>
	<path class="st5" d="M248.14,415.28c5.03,4.9,6.39,12.59,12.5,17.18c1.03,1.95,0.99,3.46,0.99,3.46l0,4.56l1.03,1.79l-0.06-25.06
		C262.6,417.21,243.11,410.37,248.14,415.28z"/>
</g>
<g>
	<path class="st4" d="M266.8,499.21c-2.22,0-4.52-0.08-6.85-0.23c-8.11-0.53-18.74-2.27-21.99-5.41c-3.12-3.02-3.14-4.44-2.9-6.88
		c0.16-1.59,0.36-3.56-0.64-7.22c-2.02-7.35-6.87-11.31-13.01-16.32c-0.96-0.79-1.95-1.59-2.96-2.44
		c-7.05-5.91-13.82-14.02-18.58-22.24c-4.48-7.75-6.49-23.96-2.45-31.82l1.64,0.84c-3.73,7.25-1.76,22.84,2.4,30.05
		c4.65,8.05,11.27,15.97,18.16,21.75c1,0.84,1.99,1.64,2.94,2.42c6.14,5.01,11.45,9.34,13.62,17.26c1.09,3.99,0.87,6.25,0.7,7.89
		c-0.2,2-0.29,2.83,2.34,5.37c4.88,4.72,34.89,7.69,47.66,2.07c4.35-1.91,6.57-4.81,6.59-8.61c0.03-4.79-3.52-9.46-5.39-10.31
		c-0.8-0.36-2-0.82-3.38-1.34c-5.19-1.97-13.03-4.95-16.04-9.14c-3.22-4.48-7.97-20.51-7.97-28.98c0-2.78,0.37-4.97,0.73-7.09
		c0.55-3.26,1.07-6.35,0.25-11.48l1.82-0.29c0.87,5.43,0.3,8.81-0.25,12.08c-0.34,2.04-0.7,4.15-0.7,6.78
		c0,8.02,4.61,23.72,7.62,27.91c2.68,3.74,10.22,6.6,15.2,8.49c1.41,0.54,2.63,1,3.49,1.39c2.6,1.18,6.5,6.57,6.47,12
		c-0.02,3.16-1.37,7.51-7.69,10.29C282.91,498.08,275.4,499.21,266.8,499.21z"/>
</g>
<g>
	<path class="st0" d="M1.36,261.82c-1.38,9.08,9.82,28.88,13.03,32.66s15.29,15.86,21.52,16.05c6.23,0.19,8.31-2.08,8.87-3.78
		s0.57-8.12-1.13-11.7c-1.7-3.59-9.89-7.79-18.88-13.59C13.16,273.94,13.44,271.44,1.36,261.82z"/>
	<path class="st1" d="M36.63,311.45c-0.24,0-0.49,0-0.75-0.01c-7.02-0.21-19.94-13.72-22.2-16.37
		c-3.22-3.78-14.67-23.95-13.23-33.39l0.24-1.58l1.25,0.99c5.19,4.13,8.09,6.95,10.66,9.43c3.4,3.29,6.09,5.9,12.68,10.15
		c2.22,1.44,4.37,2.76,6.44,4.03c6.35,3.91,11.37,7,12.77,9.94c1.8,3.8,1.84,10.4,1.17,12.39C45.1,308.71,43.18,311.45,36.63,311.45
		z M2.17,263.65c0.09,9.37,10.11,26.91,12.93,30.23c3.87,4.56,15.37,15.55,20.84,15.72c6.19,0.19,7.63-2.14,7.97-3.14
		c0.49-1.48,0.49-7.67-1.09-11.02c-1.16-2.45-6.21-5.56-12.06-9.16c-2.08-1.28-4.24-2.61-6.48-4.05
		c-6.74-4.35-9.48-7.01-12.96-10.37C9.01,269.63,6.44,267.13,2.17,263.65z"/>
</g>
<g>
	<path class="st0" d="M25.15,231.42c0,7.36,1.25,13.66,4.34,22.65c2.01,5.85,6.42,12.65,10.76,14.91c4.34,2.27,5.85-0.76,5.66-4.53
		c-0.19-3.78-5.29-13.59-8.31-17.93C34.59,242.18,28.73,235.09,25.15,231.42z"/>
	<path class="st1" d="M42.9,270.7c-0.91,0-1.94-0.3-3.07-0.89c-4.72-2.46-9.21-9.63-11.21-15.43c-3.16-9.2-4.39-15.63-4.39-22.95
		v-2.26l1.58,1.62c3.63,3.71,9.5,10.83,12.56,15.22c2.87,4.12,8.26,14.24,8.47,18.41c0.14,2.78-0.58,4.82-2.02,5.74
		C44.25,270.52,43.61,270.7,42.9,270.7z M26.12,233.8c0.25,6.17,1.5,12,4.24,19.98c1.83,5.32,6.07,12.18,10.31,14.39
		c0.96,0.5,2.28,0.98,3.14,0.43c0.84-0.54,1.28-2.07,1.18-4.1c-0.17-3.42-5.05-13.01-8.14-17.45
		C34.26,243.34,29.64,237.65,26.12,233.8z"/>
</g>
<g>
	<path class="st9" d="M165.86,430.99"/>
</g>
<g>
	<path class="st4" d="M165.06,431.47c-3.6-5.97-5.98-12.63-6.75-16.6l1.81-0.35c0.73,3.8,3.03,10.22,6.51,15.99L165.06,431.47z"/>
</g>
<g>
	<path class="st10" d="M257.19,397.58"/>
</g>
<g>
	<path class="st11" d="M91.01,166.48c1.81,2.87,12.33,12.33,15.94,13.39s15.94,1.06,17.75,0c-0.88,3.24-3.57,7.51-3.57,7.51
		l-5.04,3.33l-6.07,1.1l-6.82-2l-4.75-3.08l-4.06-5.68l-2.74-4.48l-2.34-6.38l-1.59-7.23l-0.21-2.26L91.01,166.48z"/>
</g>
<g>
	<path class="st11" d="M154,227.61l-3.3,5.91l-5.5,4.39l-7.86,1.88l-6.34-0.28l-7.01-3.1l-5.07-2.7l-5.65-4.71l-5.35-5.92
		l-0.69-2.76l6.36,0.36l3.35,3.08c3.3,1.7,11,6.35,16.44,6.66C145.41,231.13,154,227.61,154,227.61"/>
</g>
<g>
	<path class="st11" d="M192.8,288.38l5.5-4.39l3.3-5.91c0,0,0.94-0.84,0.14-4.37c-1.25,2-5.54,7.9-13.86,8.93
		c-8.32,1.04-15.29-2.99-16.14-6.97l-6.65,7.28l-3.9,2.57l-2.94,1.55l4.35,2.45l9.72,2.05h11.1l5.55-1.09L192.8,288.38z"/>
</g>
<g>
	<path class="st1" d="M110.86,192.77c-9.43,0-21.03-8.62-24.49-33.39l-0.33-2.39l1.85,1.56c10.22,8.65,16.49,7.48,21.54,6.55
		c2.16-0.4,4.19-0.78,6.24-0.37c6.97,1.39,9.98,11.49,10.11,11.92l0.03,0.11l0,0.12c0.26,8.35-5.6,15.16-13.65,15.84
		C111.73,192.75,111.3,192.77,110.86,192.77z M88.56,161.47c3.83,22.8,14.9,30.14,23.44,29.41c7.01-0.6,12.13-6.53,11.96-13.82
		c-0.33-1.05-3.13-9.41-8.66-10.52c-1.7-0.34-3.48-0.01-5.54,0.37C104.65,167.85,98.37,169.02,88.56,161.47z"/>
</g>
<g>
	<path class="st1" d="M136.75,241.17c-2.49,0-5.07-0.42-7.69-1.27c-8.12-2.64-16.1-9.09-23.71-19.17l-1.35-1.79l2.22,0.32
		c14.74,2.14,20.33-2.89,24.83-6.94c1.9-1.71,3.69-3.32,5.89-4.17c7.56-2.92,15.91,5.06,16.26,5.41l0.09,0.09l0.06,0.11
		c4.84,8.19,2.36,18.82-5.66,24.19C144.49,240.08,140.75,241.17,136.75,241.17z M108.18,221.36c6.89,8.66,14.28,14.44,21.45,16.78
		c6.27,2.04,12.32,1.42,17.04-1.74c7.29-4.88,9.49-14.15,5.16-21.6c-0.87-0.81-8.13-7.28-14.22-4.93c-1.89,0.73-3.48,2.16-5.32,3.82
		C127.74,217.78,122.14,222.83,108.18,221.36z"/>
</g>
<g>
	<path class="st1" d="M178.04,292.88c-6.34,0-13.5-1.45-21.4-4.34l-2.11-0.77l2.04-0.93c13.55-6.19,15.51-13.46,17.09-19.3
		c0.67-2.46,1.3-4.79,2.69-6.7c4.77-6.56,16.11-4.37,16.59-4.28l0.12,0.02l0.11,0.05c8.51,4.26,12.19,14.53,8.37,23.39
		c-2.48,5.75-7.66,9.92-14.59,11.76C184.2,292.52,181.22,292.88,178.04,292.88z M159.36,287.54c10.49,3.54,19.83,4.39,27.12,2.46
		c6.37-1.69,11.12-5.49,13.37-10.71c3.47-8.05,0.3-17.03-7.38-20.95c-1.17-0.21-10.78-1.7-14.62,3.58c-1.19,1.64-1.75,3.7-2.4,6.1
		C173.85,273.93,171.88,281.21,159.36,287.54z"/>
</g>
<g>
	<path class="st11" d="M26.13,232.46c1.6,5.05,5.12,18.4,7.22,21.21c2.11,2.81,7.12,11.89,11.17,15.55
		c-2.74,1.55-2.74,0.39-2.74,0.39l-3.73-2.13l-3.78-4.22l-4-7.14l-2.49-7.38l-1.86-7.89l-0.78-6.98v-2.45L26.13,232.46z"/>
</g>
<g>
	<path class="st11" d="M2.94,263.09c0.9,4.17,5.59,14.94,10.27,20.45c4.69,5.5,19.21,18.74,23.66,21.43s6.39,3.85,6.39,3.85
		l-2.99,1.71l-5.43-0.15l-6.55-3.26l-6.64-5.34l-4.87-4.7l-5.74-7.62l-3.82-7.08l-4.28-8.67l-1.4-7.03l-0.18-4.85L2.94,263.09z"/>
</g>
<g>
	<path class="st11" d="M183.17,332.08c1.06,2.48,2.92,6.97,4.88,9.2c1.96,2.23,11.84,12.02,16.03,13.6
		c4.19,1.58,4.69,1.57,4.69,1.57l-0.16,3.07l-2.2,1.72l-4.27-0.57l-4.91-3l-6.9-5.26l-6.12-7.89l-4.83-7.94l-2.66-5.92l-1.03-2.87
		L183.17,332.08z"/>
</g>
<g>
	<path class="st11" d="M194.68,365.7c2.88,2.5,10.95,5.82,14.09,6.31c3.14,0.48,9.15,1.31,11.64,1.18c0.46,3.22-0.52,3.44-0.52,3.44
		l-3.69,1.8l-9.11-0.63l-7.64-2.49l-5.24-2.12l-4.98-3.1l-3.61-2.54l-2.21-1.8L194.68,365.7z"/>
</g>
<g>
	<path class="st1" d="M42.9,270.83c-0.91,0-1.94-0.3-3.07-0.89c-4.72-2.46-9.21-9.63-11.21-15.43c-3.16-9.2-4.39-15.63-4.39-22.95
		v-2.26l1.58,1.62c3.63,3.71,9.5,10.83,12.56,15.22c2.87,4.12,8.26,14.24,8.47,18.41c0.14,2.78-0.58,4.82-2.02,5.74
		C44.25,270.65,43.61,270.83,42.9,270.83z M26.12,233.93c0.25,6.17,1.5,12,4.24,19.98c1.83,5.32,6.07,12.18,10.31,14.39
		c0.96,0.5,2.28,0.98,3.14,0.43c0.84-0.54,1.28-2.07,1.18-4.1c-0.17-3.42-5.05-13.01-8.14-17.45
		C34.26,243.47,29.64,237.78,26.12,233.93z"/>
</g>
<g>
	<path class="st1" d="M36.63,311.45c-0.24,0-0.49,0-0.75-0.01c-7.02-0.21-19.94-13.72-22.2-16.37
		c-3.22-3.78-14.67-23.95-13.23-33.39l0.24-1.58l1.25,0.99c5.19,4.13,8.09,6.95,10.66,9.43c3.4,3.29,6.09,5.9,12.68,10.15
		c2.22,1.44,4.37,2.76,6.44,4.03c6.35,3.91,11.37,7,12.77,9.94c1.8,3.8,1.84,10.4,1.17,12.39C45.1,308.71,43.18,311.45,36.63,311.45
		z M2.17,263.65c0.09,9.37,10.11,26.91,12.93,30.23c3.87,4.56,15.37,15.55,20.84,15.72c6.19,0.19,7.63-2.14,7.97-3.14
		c0.49-1.48,0.49-7.67-1.09-11.02c-1.16-2.45-6.21-5.56-12.06-9.16c-2.08-1.28-4.24-2.61-6.48-4.05
		c-6.74-4.35-9.48-7.01-12.96-10.37C9.01,269.63,6.44,267.13,2.17,263.65z"/>
</g>
<g>
	<path class="st1" d="M205.38,362.17c-0.49,0-1.01-0.05-1.57-0.14c-5.66-0.91-12.68-6.71-16.69-11.96
		c-6.37-8.34-9.82-14.5-12.31-21.99l-0.71-2.15l2.01,1.04c4.98,2.57,13.41,7.85,18.04,11.31c4.34,3.24,13.3,11.76,14.93,15.94
		c1.08,2.77,1.04,5.08-0.11,6.5C208.18,361.68,206.98,362.17,205.38,362.17z M177.35,329.73c2.36,6.32,5.65,11.91,11.23,19.22
		c3.7,4.84,10.39,10.43,15.51,11.26c1.17,0.19,2.72,0.23,3.43-0.66c0.69-0.86,0.63-2.6-0.18-4.67c-1.34-3.45-9.62-11.63-14.31-15.13
		C189.07,336.79,182.28,332.47,177.35,329.73z"/>
</g>
<g>
	<path class="st1" d="M212.8,379.34c-3.92,0-8.36-0.96-11.75-2.32c-8.2-3.27-13.37-6.24-18.41-10.58l-1.72-1.48l2.26-0.14
		c4.71-0.3,13.08-0.12,17.91,0.38c4.54,0.47,14.72,2.76,17.72,5.09c2.02,1.57,3.01,3.3,2.78,4.87c-0.2,1.41-1.29,2.51-3.24,3.29
		C216.8,379.07,214.87,379.34,212.8,379.34z M185.69,366.56c4.33,3.4,9.05,5.96,16.04,8.75c4.73,1.89,11.92,3.03,15.94,1.43
		c0.89-0.35,1.98-0.96,2.1-1.84c0.12-0.86-0.66-2.04-2.09-3.15c-2.44-1.9-11.9-4.21-16.78-4.72
		C196.89,366.62,190.4,366.43,185.69,366.56z"/>
</g>
<g>
	<path class="st11" d="M84.38,50.02c4.98,10.85,9.07,26.9,18.99,40.33s37.1,43.4,37.1,43.4l-9.62,10.77l-7.32-4.87l-9.84-10.86
		l-8.51-13.73l-7.2-15.44L92.46,84.5l-5.34-19.52l-1.73-5.99L84.38,50.02z"/>
</g>
<g>
	<path class="st11" d="M154.42,20.33c2.95,12.98,6.75,25.44,15.49,39.66s29.77,30.61,29.77,30.61l-10.86,5.48l-5.14-3.22
		l-9.61-10.34l-7.97-13.56l-5.85-16l-4.2-15.52"/>
</g>
<g>
	<path class="st1" d="M131,145.61l-0.55-0.27c-13.46-6.48-26.94-26.51-36.98-54.97c-8.81-24.98-13.04-51.51-10.53-66.03l0.63-3.61
		l1.16,3.48c5.18,15.55,21.77,38.54,31.19,50.86c13.95,18.24,27.02,32.58,31.12,35.4l0.24,0.16l0.1,0.27
		c2.4,6.25,0.38,14.19-5.84,22.97c-4.62,6.52-9.85,11.15-10.07,11.35L131,145.61z M84.29,28.33C83,43.1,87.2,67.05,95.21,89.75
		c9.74,27.6,22.64,47.09,35.48,53.65c2.99-2.79,19.59-19.01,15.06-31.59C136.56,105.12,95.64,56.2,84.29,28.33z"/>
</g>
<g>
	<path class="st1" d="M188.77,97.08l-0.35-0.17c-1.79-0.86-3.58-1.98-5.31-3.32c-5.69-4.41-16.38-15.83-24.13-42.73
		c-4.96-17.23-6.9-35.71-4.93-47.07l0.63-3.61l1.16,3.48c7.27,21.8,44.44,66.56,51.67,71.53l0.24,0.16l0.1,0.27
		c1,2.6,0.91,5.22-0.28,7.79c-3.83,8.31-17.84,13.34-18.44,13.55L188.77,97.08z M155.4,7.71c-2.23,23.76,9.05,69.06,28.85,84.43
		c1.51,1.17,3.07,2.16,4.62,2.94c2.2-0.84,13.84-5.54,17.02-12.45c0.94-2.04,1.05-4.04,0.32-6.1C198.56,70.9,165.1,30.91,155.4,7.71
		z"/>
</g>
<g>
	<path class="st11" d="M191.47,109.47c2.79,4.44,5.91,11.42,10.4,14.66s8.6,4.98,8.6,4.98l-6.25,2.68l-6.06,1.75l-4.22-2.84
		l-1.51-4.46l-1.03-8.47L191.47,109.47z"/>
</g>
<g>
	<path class="st1" d="M197.84,134.48c-1.3,0-2.46-0.51-3.44-1.52c-6.03-6.24-3.38-31.37-3.26-32.44l0.13-1.22l1.14,0.47
		c2.81,1.15,27.57,11.37,30.33,14.38l0,0c0.43,0.47,0.82,1.36,0.22,2.88c-2.21,5.59-16.09,16.8-24.73,17.45
		C198.1,134.47,197.97,134.48,197.84,134.48z M192.86,101.94c-0.73,7.82-1.39,25.31,2.88,29.73c0.68,0.71,1.45,1.02,2.36,0.95
		c8.21-0.62,21.39-11.82,23.15-16.28c0.22-0.56,0.2-0.88,0.14-0.95l0,0C219.57,113.41,203.75,106.45,192.86,101.94z"/>
</g>
</svg>
